<?xml version="1.0" standalone="no"?>
<!DOCTYPE svg PUBLIC "-//W3C//DTD SVG 20010904//EN"
 "http://www.w3.org/TR/2001/REC-SVG-20010904/DTD/svg10.dtd">
<svg version="1.0" xmlns="http://www.w3.org/2000/svg"
 width="2214.000000pt" height="2214.000000pt" viewBox="0 0 2214.000000 2214.000000"
 preserveAspectRatio="xMidYMid meet">
<metadata>
Created by potrace 1.11, written by Peter Selinger 2001-2013
</metadata>
<g transform="translate(0.000000,2214.000000) scale(0.100000,-0.100000)"
fill="#000000" stroke="none">
<path d="M12544 22098 c-9 -18 -45 -87 -79 -153 -34 -66 -117 -228 -185 -360
-68 -132 -158 -307 -200 -390 -43 -82 -119 -231 -170 -330 -51 -99 -130 -252
-175 -340 -45 -88 -133 -259 -195 -380 -62 -121 -143 -278 -180 -350 -37 -71
-118 -229 -180 -350 -338 -661 -429 -835 -442 -852 -6 -7 -7 -13 -3 -13 4 0 3
-6 -2 -12 -6 -7 -59 -107 -118 -223 -59 -115 -140 -273 -180 -350 -40 -77
-116 -225 -170 -330 -54 -104 -132 -257 -175 -340 -42 -82 -144 -280 -225
-440 -81 -159 -152 -296 -158 -303 -19 -24 -21 -24 208 -37 61 -4 133 -8 160
-10 28 -2 102 -6 165 -10 63 -3 142 -8 175 -10 33 -2 98 -7 145 -9 47 -3 123
-8 170 -11 47 -3 119 -7 160 -10 75 -4 182 -11 335 -21 44 -3 120 -7 170 -9
124 -7 218 -14 222 -18 2 -3 -179 -499 -222 -607 -8 -19 -37 -98 -65 -175 -28
-77 -58 -156 -65 -175 -8 -19 -62 -163 -120 -320 -58 -157 -114 -307 -125
-335 -10 -27 -35 -93 -54 -145 -35 -96 -75 -201 -95 -253 l-11 -29 -83 6 c-45
4 -102 9 -127 11 -52 5 -177 16 -350 30 -36 3 -90 8 -120 11 -30 3 -77 7 -105
9 -27 2 -93 7 -145 11 -52 4 -108 8 -125 8 l-30 1 0 -409 0 -410 -110 4 c-295
10 -894 2 -1115 -15 -25 -1 -85 -6 -135 -10 -49 -3 -103 -8 -120 -10 -16 -2
-66 -7 -110 -10 -44 -4 -82 -8 -85 -10 -3 -1 -45 -6 -95 -10 -49 -4 -92 -8
-95 -10 -3 -2 -30 -6 -60 -9 -30 -3 -66 -8 -80 -10 -14 -3 -47 -8 -75 -11 -27
-4 -63 -8 -80 -11 -16 -2 -41 -6 -55 -9 -14 -3 -43 -7 -65 -11 -74 -10 -319
-55 -435 -79 -63 -13 -128 -27 -145 -30 -54 -9 -318 -73 -435 -105 -63 -17
-125 -33 -138 -36 -32 -6 -159 -46 -360 -111 -143 -47 -173 -60 -177 -77 -2
-12 -11 -84 -20 -161 -9 -77 -18 -154 -20 -170 -4 -36 -10 -87 -30 -258 -9
-71 -17 -143 -20 -160 -2 -18 -7 -54 -10 -82 -3 -27 -7 -68 -10 -90 -3 -22 -7
-58 -10 -80 -18 -154 -37 -315 -40 -340 -2 -16 -7 -52 -10 -80 -3 -27 -10 -84
-15 -125 -5 -41 -12 -100 -16 -130 -3 -30 -7 -66 -9 -80 -2 -14 -7 -54 -10
-90 -4 -36 -9 -72 -10 -80 -1 -8 -6 -44 -10 -80 -3 -36 -8 -76 -10 -90 -2 -14
-7 -50 -10 -80 -3 -30 -8 -66 -10 -80 -2 -14 -7 -53 -10 -87 -3 -34 -7 -70 -9
-80 -2 -10 -7 -49 -11 -88 -10 -107 -14 -142 -25 -250 -17 -164 -19 -187 -25
-253 -3 -34 -7 -88 -10 -120 -3 -31 -7 -88 -10 -127 -3 -38 -8 -95 -10 -125
-5 -51 -7 -82 -20 -252 -2 -35 -7 -108 -10 -163 -3 -55 -8 -129 -10 -165 -2
-36 -7 -110 -10 -165 -13 -227 -16 -269 -30 -520 -3 -49 -8 -119 -10 -155 -3
-36 -7 -110 -10 -165 -3 -55 -7 -131 -10 -170 -2 -38 -7 -115 -10 -170 -3 -55
-8 -134 -10 -175 -3 -41 -7 -115 -10 -165 -3 -49 -8 -126 -10 -170 -3 -44 -7
-123 -10 -175 -3 -52 -7 -122 -10 -155 -3 -33 -7 -107 -10 -165 -3 -58 -7
-130 -10 -160 -2 -30 -7 -112 -10 -181 l-6 -126 43 -25 c913 -520 1734 -871
2713 -1159 39 -12 81 -25 95 -29 41 -14 437 -118 480 -126 14 -3 39 -9 55 -14
35 -11 347 -80 490 -109 208 -42 529 -99 655 -116 19 -2 46 -7 59 -9 13 -3 49
-8 80 -11 31 -4 63 -8 71 -10 8 -2 38 -7 65 -10 28 -3 66 -8 85 -11 19 -2 53
-7 75 -9 58 -7 135 -16 175 -20 19 -3 55 -7 80 -9 25 -3 70 -8 100 -11 30 -3
78 -8 105 -10 28 -2 82 -6 120 -9 260 -22 310 -25 665 -43 317 -16 1308 -8
1575 12 28 2 100 7 160 10 61 3 128 8 150 10 37 4 83 7 255 20 62 4 89 7 205
20 28 3 75 7 105 10 30 3 70 7 90 9 19 3 60 8 90 11 30 4 66 8 80 10 14 2 50
7 80 10 30 3 62 8 70 10 8 2 42 6 75 10 33 3 87 10 120 15 33 5 78 12 100 15
49 8 219 34 260 41 17 3 66 11 110 19 44 8 96 17 115 20 32 5 186 33 220 40 8
2 85 17 170 35 85 17 162 33 170 35 8 2 58 13 110 25 201 45 612 151 656 169
17 8 23 22 28 68 4 32 9 72 11 88 5 37 13 106 20 165 3 25 7 61 10 80 3 19 7
60 10 90 3 30 8 66 10 80 2 14 7 48 10 75 14 138 16 162 20 185 4 25 9 62 20
159 4 30 8 61 10 70 1 9 6 45 9 81 4 36 8 75 10 85 2 11 7 47 10 80 4 33 8 71
11 85 2 14 7 52 10 85 7 73 14 131 20 165 2 14 7 54 10 90 4 36 8 76 10 90 6
39 14 100 20 160 3 30 8 66 10 80 2 14 7 50 10 80 3 30 8 71 11 91 2 20 7 55
9 79 4 40 8 69 20 160 3 19 7 58 10 85 6 50 9 83 20 165 3 25 8 64 10 88 8 65
14 119 25 222 15 131 18 157 25 220 12 115 24 236 30 315 3 28 7 77 10 110 15
167 15 171 30 375 5 79 13 204 20 325 3 50 7 124 10 165 2 41 7 120 10 175 3
55 8 132 10 170 2 39 7 122 10 185 4 63 8 149 11 190 2 41 6 120 9 175 3 55 7
134 10 175 7 119 16 269 20 345 6 119 17 307 20 360 2 28 6 109 10 180 4 72 8
153 10 180 4 42 14 226 19 329 1 28 -6 33 -94 80 -263 140 -630 303 -960 425
-107 40 -204 77 -215 81 -26 11 -194 67 -371 124 -489 156 -1102 313 -1624
415 -85 17 -181 36 -212 42 l-58 12 0 432 c0 338 -3 432 -12 432 -12 0 -107 8
-228 18 -25 2 -74 6 -110 9 -171 14 -204 17 -241 21 -21 2 -78 7 -127 10 -49
3 -98 7 -110 10 -11 2 -63 6 -114 10 -51 3 -102 8 -113 10 -11 2 -24 4 -28 4
-5 1 -6 4 -3 9 4 7 88 395 100 467 3 17 21 105 41 195 19 91 38 179 41 195 2
17 20 103 39 191 19 89 44 208 56 265 22 111 26 132 33 164 3 11 32 153 66
315 33 162 62 302 65 310 2 8 7 31 10 50 3 19 15 73 25 120 10 47 21 96 24
110 17 89 39 197 71 345 20 94 38 181 41 195 15 79 97 474 108 521 l13 56
-818 0 c-451 0 -822 3 -825 6 -6 6 8 66 141 607 31 124 58 236 61 250 3 14 34
142 68 285 35 143 67 276 71 295 3 19 12 55 20 80 11 39 91 366 100 410 2 8 8
35 15 60 7 25 14 52 15 60 2 8 20 83 40 165 20 83 38 157 40 165 15 67 116
482 216 890 23 91 42 172 44 180 2 8 30 126 64 262 33 137 63 261 66 277 3 17
9 40 14 53 5 13 9 26 9 31 1 15 54 230 62 253 14 35 3 29 -16 -8z m-1799
-9943 c341 -10 481 -18 725 -40 36 -3 88 -8 116 -10 28 -2 68 -6 90 -9 21 -3
71 -8 109 -11 39 -4 84 -9 100 -11 17 -2 54 -6 84 -10 30 -3 62 -7 70 -9 9 -1
41 -6 71 -10 30 -3 69 -9 85 -12 17 -3 39 -6 50 -8 31 -3 112 -16 203 -31 206
-35 260 -45 302 -54 25 -5 56 -12 70 -14 269 -48 806 -188 1115 -291 287 -95
595 -214 793 -306 160 -75 279 -134 307 -153 17 -12 30 -19 30 -17 0 7 131
-67 198 -111 32 -21 62 -38 67 -38 5 0 13 -8 18 -17 15 -31 5 -1140 -13 -1438
-2 -33 -6 -116 -10 -185 -7 -142 -11 -191 -20 -305 -3 -44 -8 -107 -10 -140
-2 -33 -7 -89 -11 -125 -3 -36 -8 -85 -10 -110 -4 -50 -6 -76 -29 -295 -9 -82
-18 -161 -20 -175 -2 -14 -6 -50 -10 -80 -3 -30 -8 -71 -11 -91 -2 -20 -7 -54
-9 -75 -8 -58 -14 -103 -41 -289 -29 -196 -28 -190 -49 -315 -9 -52 -18 -108
-21 -125 -2 -16 -6 -41 -9 -55 -3 -14 -7 -41 -10 -60 -3 -19 -10 -55 -15 -80
-5 -25 -21 -108 -36 -185 -14 -77 -28 -149 -30 -160 -2 -11 -17 -85 -32 -165
l-28 -145 -59 -12 c-68 -14 -55 -12 -305 -53 -101 -17 -205 -33 -230 -36 -25
-3 -58 -7 -75 -10 -37 -7 -49 -9 -200 -28 -131 -17 -172 -22 -255 -31 -30 -3
-91 -10 -135 -15 -44 -5 -111 -12 -150 -15 -38 -3 -95 -8 -125 -10 -206 -19
-340 -27 -645 -42 -216 -10 -990 -9 -1195 1 -91 4 -192 9 -225 11 -33 1 -98 6
-145 9 -47 4 -110 9 -140 11 -133 10 -197 16 -230 20 -19 2 -69 7 -110 11 -41
3 -83 8 -92 9 -9 2 -45 6 -80 10 -35 3 -74 8 -88 10 -14 2 -43 6 -65 9 -22 4
-60 9 -85 11 -25 3 -56 8 -70 10 -14 2 -74 11 -135 20 -138 20 -121 17 -370
60 -25 5 -80 15 -255 49 -14 3 -45 9 -70 14 -25 5 -81 17 -125 26 -134 28
-561 135 -710 177 -288 82 -752 234 -880 289 -11 4 -69 27 -130 51 -143 55
-331 137 -477 207 l-118 56 -1 75 c-1 188 3 977 6 1081 6 199 21 525 30 650 2
36 7 106 10 155 3 50 8 108 10 130 2 22 7 74 10 115 6 77 13 148 20 210 2 19
7 67 10 105 3 39 7 86 10 105 6 45 11 92 25 214 7 54 13 106 15 115 2 9 6 44
10 76 4 33 8 71 10 85 2 14 6 45 10 70 3 25 8 56 10 70 3 14 7 45 10 70 6 48
10 73 25 160 6 30 12 69 14 85 2 17 6 46 10 65 3 19 8 49 10 65 3 17 9 55 15
85 5 30 12 71 15 90 4 19 9 49 13 65 3 17 7 40 9 52 1 12 5 34 8 50 3 15 8 44
11 63 4 19 15 80 25 135 11 55 22 116 25 135 3 19 15 87 27 150 11 63 21 121
22 128 4 21 20 31 56 36 19 2 62 9 95 15 33 6 78 13 100 16 22 3 65 10 95 15
30 5 71 12 90 15 19 3 46 7 60 10 14 2 50 7 80 11 91 11 98 12 137 18 38 6
100 14 158 22 17 2 54 6 83 10 29 3 61 7 71 9 9 2 50 6 90 10 40 3 80 8 89 10
9 1 53 6 97 9 44 4 87 9 95 11 8 2 53 7 100 10 47 3 101 8 120 10 19 2 80 6
135 10 55 3 111 8 125 10 14 2 84 7 155 10 72 4 153 9 180 11 28 2 190 6 360
10 171 3 311 7 312 8 3 2 269 -2 488 -9z"/>
<path d="M9093 10295 c-201 -36 -376 -128 -523 -275 -185 -185 -282 -416 -282
-675 0 -128 3 -155 27 -250 30 -119 95 -254 168 -350 51 -67 170 -177 248
-230 41 -27 76 -53 77 -57 2 -5 8 -6 13 -2 5 3 9 0 9 -6 0 -7 6 -10 14 -7 8 3
20 -1 26 -8 7 -8 15 -14 18 -13 4 1 39 -9 77 -21 82 -26 89 -28 164 -38 99
-12 244 -7 331 12 14 4 36 9 50 12 14 3 31 6 38 6 6 0 12 4 12 9 0 5 4 7 8 4
5 -3 19 1 33 8 13 7 27 13 32 14 4 1 20 8 36 16 16 9 31 12 35 9 3 -4 6 -2 6
4 0 6 14 16 30 23 17 7 30 17 30 22 0 5 5 6 10 3 6 -3 10 -1 10 4 0 6 7 11 15
11 8 0 15 5 15 11 0 5 4 8 9 4 6 -3 15 4 21 16 7 11 14 18 17 16 3 -3 20 10
38 28 18 19 35 31 39 28 3 -4 6 -2 6 4 0 6 17 29 39 52 21 22 36 41 33 41 -3
0 4 8 15 18 11 9 22 25 26 35 3 9 11 17 17 17 6 0 8 5 5 10 -3 6 -2 10 2 10 5
0 17 20 28 45 11 25 24 45 28 45 5 0 5 5 2 10 -3 6 -1 10 4 10 6 0 10 3 9 8 0
4 2 16 6 27 39 101 51 144 63 220 8 47 7 277 0 320 -3 17 -8 46 -12 65 -3 19
-11 40 -17 47 -6 7 -8 13 -4 13 3 0 0 16 -8 35 -8 19 -13 35 -10 35 2 0 -2 10
-11 23 -8 13 -12 27 -8 30 3 4 2 7 -4 7 -10 0 -26 36 -24 53 1 4 -4 7 -9 7 -6
0 -10 6 -10 13 0 7 -9 23 -20 35 -12 12 -18 22 -15 22 4 0 -1 7 -10 16 -9 9
-24 29 -33 43 -9 14 -39 46 -66 71 -28 25 -59 53 -69 64 -41 39 -181 126 -255
157 -168 71 -375 95 -549 64z m126 -325 c142 -72 176 -256 68 -368 -48 -50
-101 -74 -166 -74 -129 -1 -221 82 -237 214 -20 174 177 309 335 228z"/>
<path d="M12960 9919 c-226 -29 -415 -118 -571 -270 -189 -185 -287 -413 -294
-679 -8 -342 148 -633 450 -843 53 -37 93 -62 89 -56 -3 6 11 0 32 -14 22 -13
45 -22 52 -20 6 3 12 0 12 -7 0 -6 4 -9 9 -5 5 3 12 1 16 -5 4 -6 10 -8 15 -5
5 3 11 1 15 -4 3 -5 14 -8 25 -6 11 2 20 0 20 -4 0 -4 6 -8 13 -9 6 0 32 -4
57 -8 51 -8 265 -9 325 -1 22 3 60 11 85 18 25 7 48 13 53 15 4 1 8 2 10 4 1
1 9 3 17 5 8 2 29 9 45 16 17 7 33 12 38 11 4 -1 7 2 7 8 0 6 3 9 8 8 11 -3
102 45 102 54 0 4 6 8 13 8 7 0 27 13 45 29 17 17 32 27 32 24 0 -3 14 10 31
28 17 19 28 27 23 19 -4 -8 4 -4 17 10 14 14 24 27 23 29 -2 2 8 13 22 26 13
12 24 27 24 34 0 6 3 10 8 8 4 -1 8 1 10 5 1 5 11 18 22 31 23 27 58 83 66
110 4 9 11 17 16 17 5 0 6 5 3 10 -3 6 -1 10 5 10 6 0 8 5 5 10 -3 6 -1 10 4
10 6 0 10 3 10 8 -1 4 0 10 1 15 1 4 3 10 5 15 1 4 7 21 14 37 7 17 13 38 14
48 1 9 4 17 7 17 3 0 6 8 7 18 0 9 4 28 7 42 20 83 26 255 12 355 -4 28 -9 57
-10 65 -1 9 -6 21 -10 28 -4 7 -5 16 -2 19 3 3 -1 18 -10 34 -8 16 -12 29 -8
29 4 0 1 6 -5 13 -6 8 -8 17 -4 20 3 4 0 7 -7 7 -7 0 -10 3 -7 6 3 4 1 16 -5
28 -7 11 -13 23 -13 26 -1 11 -67 120 -76 125 -5 4 -7 11 -4 16 4 5 1 9 -5 9
-6 0 -13 7 -17 15 -9 24 -114 127 -199 195 -35 28 -141 90 -198 115 -143 63
-344 93 -496 74z m86 -345 c168 -103 139 -358 -48 -420 -232 -77 -412 214
-239 386 55 55 95 70 177 67 49 -2 72 -9 110 -33z"/>
<path d="M8990 18054 c-30 -7 -64 -15 -75 -18 -11 -2 -40 -9 -65 -15 -25 -7
-53 -13 -62 -16 -360 -85 -972 -296 -1378 -475 -183 -81 -527 -248 -650 -316
-36 -19 -99 -54 -140 -77 -97 -53 -352 -205 -460 -275 -124 -80 -284 -186
-290 -192 -3 -3 -43 -32 -90 -65 -307 -212 -718 -551 -1019 -840 -92 -88 -349
-348 -378 -381 -10 -12 -52 -58 -93 -104 -97 -107 -82 -90 -181 -205 -396
-461 -814 -1074 -1101 -1613 -51 -96 -208 -411 -237 -474 -43 -98 -60 -134
-86 -193 -36 -81 -133 -318 -156 -380 -10 -27 -32 -88 -49 -135 -63 -171 -153
-449 -204 -630 -58 -209 -124 -472 -142 -570 -3 -14 -13 -68 -24 -120 -11 -52
-21 -106 -24 -120 -2 -14 -11 -63 -19 -110 -9 -47 -18 -101 -21 -120 -3 -19
-7 -44 -10 -55 -2 -11 -7 -47 -11 -80 -4 -32 -8 -66 -10 -75 -1 -8 -6 -42 -10
-75 -5 -33 -9 -67 -10 -75 -1 -8 -5 -48 -9 -88 -4 -41 -9 -81 -11 -90 -1 -9
-6 -61 -10 -115 -3 -54 -8 -106 -10 -115 -19 -100 -28 -997 -12 -1217 20 -269
21 -284 43 -490 16 -150 21 -190 29 -245 3 -19 10 -66 16 -105 8 -59 28 -181
44 -275 3 -14 7 -38 10 -55 3 -16 8 -41 10 -55 3 -14 7 -35 9 -46 3 -12 14
-66 26 -120 12 -55 23 -108 26 -119 14 -75 93 -376 131 -505 25 -85 52 -175
59 -200 49 -173 227 -657 319 -865 159 -362 299 -641 480 -960 121 -212 346
-560 508 -785 448 -620 986 -1198 1572 -1686 388 -325 836 -637 1278 -893 87
-50 160 -91 162 -91 2 0 32 -16 67 -36 171 -98 581 -292 878 -417 479 -201
1234 -427 1710 -511 37 -6 56 -10 135 -26 28 -5 70 -12 95 -15 25 -4 66 -11
93 -16 53 -10 403 -55 487 -63 30 -3 84 -8 120 -11 36 -3 83 -8 105 -10 282
-28 1120 -28 1435 0 277 25 407 39 630 71 38 5 356 60 405 69 1538 298 2977
994 4185 2023 300 257 640 590 895 877 44 50 82 92 85 95 13 12 164 195 236
285 43 55 81 102 84 105 3 3 48 63 100 133 596 808 1031 1640 1340 2565 60
180 153 487 166 547 2 11 15 65 30 120 14 55 27 107 29 115 2 8 15 67 29 130
22 98 52 249 72 365 2 17 7 37 9 45 2 8 7 35 10 60 3 25 8 52 10 60 2 8 6 35
9 60 3 25 8 56 10 70 7 33 34 248 41 325 3 33 8 76 10 95 9 72 22 239 32 395
15 239 8 992 -11 1186 -3 24 -8 80 -11 124 -3 44 -7 96 -10 115 -2 19 -6 62
-10 95 -3 33 -8 71 -10 85 -2 14 -7 52 -10 85 -9 73 -9 75 -29 205 -23 151
-27 172 -32 200 -3 14 -9 48 -14 75 -11 62 -38 201 -46 235 -3 14 -7 34 -9 45
-15 72 -59 255 -80 335 -9 36 -18 70 -20 75 -24 104 -116 407 -179 595 -341
1001 -847 1926 -1514 2764 -52 66 -105 131 -117 145 -270 314 -296 342 -575
621 -263 263 -328 323 -550 511 -297 251 -570 455 -885 661 -150 98 -490 308
-500 308 -2 0 -26 13 -52 28 -187 110 -545 288 -818 406 -71 31 -139 61 -150
66 -83 38 -301 117 -306 112 -4 -4 -17 -52 -29 -107 -12 -55 -26 -114 -31
-131 -5 -17 -11 -40 -13 -50 -3 -10 -43 -181 -91 -379 -48 -198 -88 -373 -89
-388 -1 -26 5 -30 74 -59 104 -42 117 -47 325 -141 91 -41 417 -204 520 -261
357 -196 705 -423 1020 -665 94 -72 319 -255 335 -271 3 -3 23 -20 45 -39 169
-143 538 -505 700 -685 44 -49 85 -94 90 -100 6 -6 44 -52 86 -101 667 -794
1160 -1671 1482 -2635 127 -379 253 -881 301 -1195 4 -22 11 -69 17 -105 17
-107 15 -99 35 -250 8 -61 21 -177 29 -275 4 -38 8 -88 10 -110 26 -276 25
-1000 0 -1235 -2 -19 -6 -69 -10 -110 -3 -41 -8 -91 -10 -110 -5 -36 -12 -97
-21 -185 -4 -43 -46 -322 -59 -395 -11 -58 -17 -89 -32 -160 -8 -41 -17 -84
-19 -95 -12 -63 -73 -322 -90 -385 -40 -143 -112 -382 -150 -495 -63 -189
-124 -354 -154 -419 -11 -25 -20 -51 -20 -58 0 -8 -4 -18 -8 -23 -5 -6 -16
-29 -25 -52 -9 -23 -26 -64 -38 -90 -12 -26 -28 -64 -36 -83 -126 -290 -370
-743 -561 -1040 -66 -102 -107 -165 -112 -170 -3 -3 -18 -25 -34 -50 -109
-170 -433 -587 -605 -779 -221 -246 -480 -505 -691 -691 -46 -41 -93 -83 -105
-93 -37 -34 -309 -252 -395 -318 -123 -93 -123 -93 -376 -264 l-232 -155 -83
48 c-46 26 -91 51 -99 55 -8 4 -60 32 -115 63 -115 63 -485 248 -625 313 -172
79 -194 89 -330 146 -74 31 -148 62 -165 69 -16 8 -97 39 -180 71 -82 31 -159
61 -170 65 -11 5 -58 22 -105 39 -475 168 -898 290 -1374 396 -182 40 -367 78
-451 91 -16 3 -53 9 -81 15 -28 5 -61 11 -75 14 -26 4 -229 34 -269 40 -75 10
-109 15 -150 20 -25 3 -56 8 -70 10 -14 2 -52 7 -85 10 -125 13 -151 15 -185
20 -19 2 -69 7 -110 10 -41 3 -101 8 -132 11 -219 21 -475 29 -923 29 -406 0
-685 -7 -795 -20 -19 -2 -73 -7 -120 -10 -86 -6 -148 -11 -230 -20 -25 -3 -67
-7 -95 -10 -104 -10 -234 -27 -405 -51 -643 -90 -1350 -257 -1984 -469 l-218
-73 -76 72 c-171 161 -394 389 -537 550 -38 43 -75 84 -80 90 -6 6 -51 61
-101 121 -396 481 -722 981 -994 1524 -76 153 -115 236 -200 426 -139 313
-308 811 -406 1200 -37 143 -40 159 -49 207 -3 16 -12 56 -20 90 -8 35 -16 77
-20 93 -21 117 -55 308 -60 345 -4 25 -9 59 -11 75 -2 17 -6 41 -9 55 -3 14
-7 50 -10 80 -3 30 -8 66 -10 80 -11 75 -29 279 -42 480 -15 240 -8 939 12
1100 2 19 6 71 10 115 3 44 7 91 10 105 2 14 7 52 10 85 3 33 8 74 10 90 3 17
7 46 9 65 2 19 7 51 10 70 3 19 8 51 11 70 4 33 7 47 21 130 3 19 8 46 10 60
3 14 7 36 9 50 3 14 8 39 11 55 21 130 100 462 159 673 80 284 256 773 369
1025 14 31 26 59 25 62 0 3 7 18 15 33 8 15 59 117 113 227 157 322 294 561
508 885 166 251 420 590 565 755 19 22 60 69 90 104 142 165 484 513 649 661
46 41 89 80 95 85 23 22 313 262 351 290 22 16 42 32 45 36 7 8 223 167 295
217 169 118 366 244 535 344 94 55 113 66 220 125 204 113 555 282 765 368 50
20 101 41 115 47 14 6 60 24 104 42 71 28 81 35 103 76 32 59 101 181 114 200
5 8 12 22 16 30 4 8 40 73 80 143 40 71 73 130 73 132 0 4 84 150 100 175 6 8
13 22 17 30 4 8 64 116 133 240 70 124 142 252 160 285 18 33 40 70 48 83 16
25 16 25 -58 6z m1316 -15629 c-3 -586 -2 -1065 2 -1065 4 0 81 211 171 468
90 257 184 523 209 592 24 69 70 201 103 293 32 92 62 175 67 183 6 11 13 -21
21 -93 7 -59 14 -124 16 -143 3 -19 16 -145 30 -280 14 -135 32 -303 40 -375
8 -71 17 -159 21 -195 4 -36 8 -72 9 -80 2 -8 6 -54 10 -103 4 -48 11 -89 15
-92 4 -2 80 116 170 263 90 147 181 293 201 325 l36 58 28 -58 c15 -32 46 -96
68 -143 22 -47 68 -145 103 -219 35 -73 64 -138 64 -143 0 -25 42 10 198 165
93 92 174 167 179 167 8 0 73 -70 278 -297 l40 -45 75 34 c41 19 115 52 163
73 l89 39 171 -56 c95 -31 195 -59 222 -62 28 -3 70 -8 95 -11 160 -18 226
-27 231 -33 12 -12 15 -92 4 -92 -5 0 -102 7 -215 16 -182 14 -220 20 -340 55
-74 21 -142 39 -151 39 -8 0 -96 -36 -194 -80 -98 -44 -184 -80 -190 -80 -7 0
-35 26 -63 58 -28 31 -88 96 -134 144 l-83 88 -209 -202 -209 -202 -124 248
-124 248 -247 -405 c-136 -223 -248 -404 -250 -402 -2 1 -14 108 -28 236 -13
129 -26 254 -29 279 -3 25 -16 155 -30 290 -26 253 -33 312 -39 317 -1 2 -42
-108 -90 -244 -216 -612 -520 -1461 -536 -1503 -19 -44 -19 -37 -20 615 -1
1131 -4 1525 -10 1525 -3 0 -112 -282 -242 -627 -130 -345 -240 -629 -245
-630 -5 -2 -71 152 -147 342 -76 190 -140 345 -142 345 -3 0 -75 -56 -160
-125 -86 -69 -159 -125 -163 -125 -4 0 -86 36 -182 79 l-174 79 -280 37 c-154
20 -325 43 -380 51 -55 7 -203 27 -330 44 -313 42 -283 32 -275 86 4 24 10 47
13 51 4 3 154 -13 335 -36 658 -85 858 -111 912 -117 34 -4 108 -29 193 -65
76 -33 143 -56 150 -52 7 4 101 78 210 165 108 87 203 161 211 164 9 4 40 -60
106 -223 51 -125 98 -239 104 -251 13 -25 -6 -75 502 1318 156 428 161 440
169 440 3 0 3 -479 1 -1065z"/>
<path d="M5410 11510 c-93 -33 -208 -83 -280 -123 -30 -17 -64 -35 -75 -41
-60 -32 -219 -150 -299 -221 -160 -144 -288 -302 -395 -489 -122 -215 -216
-506 -238 -744 -9 -99 -9 -317 0 -407 31 -297 140 -601 306 -853 34 -52 66
-99 71 -105 6 -7 27 -32 47 -57 117 -140 278 -287 429 -388 75 -50 234 -136
240 -129 6 5 11 95 19 332 4 99 8 207 10 240 2 33 6 134 10 225 4 91 8 188 10
215 5 94 16 280 20 325 2 25 6 95 10 155 3 61 8 124 11 140 2 17 6 64 9 105 2
41 7 99 10 128 3 29 8 81 10 115 3 34 7 82 10 107 2 25 7 74 10 110 4 36 8 79
10 95 5 44 15 144 20 195 2 25 7 61 9 80 3 19 8 60 11 90 7 63 10 94 24 205 6
44 13 103 16 130 8 69 17 136 34 265 6 41 13 95 16 120 3 25 8 56 10 70 2 14
7 47 10 74 3 27 8 53 11 58 9 14 -38 5 -116 -22z"/>
<path d="M17049 10543 c-1 -15 -2 -41 -4 -58 -2 -16 -6 -93 -10 -170 -3 -77
-8 -162 -10 -188 -2 -26 -6 -98 -10 -160 -3 -62 -7 -141 -10 -177 -2 -36 -7
-108 -10 -160 -3 -52 -7 -135 -10 -185 -3 -49 -7 -130 -10 -180 -3 -49 -7
-121 -10 -160 -3 -38 -7 -106 -10 -150 -8 -121 -31 -381 -40 -450 -2 -16 -7
-61 -10 -100 -4 -38 -9 -78 -11 -88 -2 -10 -6 -46 -9 -80 -3 -34 -8 -73 -10
-87 -2 -14 -7 -56 -10 -93 -4 -37 -8 -76 -10 -86 -3 -17 -9 -66 -21 -176 -7
-70 -14 -124 -19 -165 -3 -19 -7 -53 -10 -75 -3 -22 -7 -65 -9 -95 -3 -30 -11
-109 -20 -175 -8 -66 -18 -145 -21 -175 -3 -30 -8 -74 -11 -98 -6 -43 -6 -43
23 -36 60 14 233 84 328 132 496 249 859 701 1000 1242 8 30 17 71 20 90 3 19
8 42 10 50 15 56 31 256 29 359 -2 108 -15 243 -29 321 -4 19 -9 46 -12 60 -8
46 -64 235 -78 267 -8 17 -15 34 -15 37 0 33 -161 330 -223 411 -198 262 -404
443 -659 580 l-88 46 -1 -28z"/>
</g>
</svg>
